<svg xmlns="http://www.w3.org/2000/svg" viewBox="0 0 128 128" role="img" aria-label="GZ monogram">
  <defs>
    <linearGradient id="g" x1="0%" y1="0%" x2="100%" y2="100%">
      <stop offset="0%" stop-color="#094744" />
      <stop offset="100%" stop-color="#0d7b77" />
    </linearGradient>
  </defs>
  <rect width="128" height="128" rx="28" fill="url(#g)" />
  <path
    d="M38 43c6-7 14-10 25-10 11 0 19 3 24 8l-9 11c-4-4-9-6-15-6-12 0-20 8-20 19 0 12 8 20 21 20 5 0 10-1 14-3V72H61V60h31v29c-7 5-17 8-29 8-21 0-36-14-36-33 0-8 4-15 11-21Z"
    fill="#fff7ef"
  />
  <path
    d="M33 101 73 27h20L53 101Z"
    fill="none"
    stroke="#f1d9cb"
    stroke-width="8"
    stroke-linecap="round"
    stroke-linejoin="round"
    opacity="0.72"
  />
</svg>
